<?xml version="1.0" encoding="UTF-8"?>
<!DOCTYPE svg PUBLIC "-//W3C//DTD SVG 1.1//EN" "http://www.w3.org/Graphics/SVG/1.1/DTD/svg11.dtd">

<svg xmlns="http://www.w3.org/2000/svg" xml:space="preserve" width="48px" height="48px" version="1.1" style="shape-rendering:geometricPrecision; text-rendering:geometricPrecision; image-rendering:optimizeQuality; fill-rule:evenodd; clip-rule:evenodd"
viewBox="0 0 48 48"
 xmlns:xlink="http://www.w3.org/1999/xlink">
 <defs>
  <style type="text/css">
   <![CDATA[
    .fil0 {fill:#15E1E6}
   ]]>
  </style>
 </defs>
 <g id="Vrstva_x0020_1">
  <metadata id="CorelCorpID_0Corel-Layer"/>
  <path class="fil0" d="M44 38l-40 0 0 -20 12 12c2,2 5,3 8,3 3,0 6,-1 8,-3l12 -11 0 20zm-20 -9c-2,0 -4,-1 -5,-2l-15 -14 0 -3 40 0 0 3 -15 14c-1,1 -3,2 -5,2zm20 -23l-40 0c-2,0 -4,2 -4,4l0 28c0,2 2,4 4,4l40 0c2,0 4,-2 4,-4l0 -28c0,-2 -2,-4 -4,-4z"/>
 </g>
</svg>
