<?xml version="1.0" encoding="UTF-8"?>
<!DOCTYPE svg PUBLIC "-//W3C//DTD SVG 1.1//EN" "http://www.w3.org/Graphics/SVG/1.1/DTD/svg11.dtd">

<svg xmlns="http://www.w3.org/2000/svg" xml:space="preserve" width="46mm" height="20mm" version="1.1" style="shape-rendering:geometricPrecision; text-rendering:geometricPrecision; image-rendering:optimizeQuality; fill-rule:evenodd; clip-rule:evenodd"
viewBox="0 0 46 20"
 xmlns:xlink="http://www.w3.org/1999/xlink">
 <defs>
  <style type="text/css">
   <![CDATA[
    .fil0 {fill:#002728}
    .fil1 {fill:#15E1E6}
    .fil2 {fill:#FFD000}
   ]]>
  </style>
 </defs>
 <g id="Vrstva_x0020_1">
  <metadata id="CorelCorpID_0Corel-Layer"/>
  <g id="_648877320">
   <path class="fil0" d="M16.0136 15.3289l-0.03 1.0609c0.0323,0.6166 0.424,0.4422 1.724,0.4422l9.0408 0c1.1637,0 2.5282,0.0641 3.6675,-0.0075 1.6331,-0.1024 3.1271,-2.5393 0.9983,-4.2531 -0.5278,-0.4249 -1.8945,-0.9901 -1.9561,-1.6875 -0.0973,-1.1011 1.4541,-0.6051 2.9256,-0.7459 0.1608,-0.3818 0.1647,-1.1761 0.0154,-1.5832 -1.78,0.1956 -3.6325,-0.6048 -4.4738,1.5601 -0.2931,0.7442 -0.0335,1.6879 0.4964,2.2679 0.1333,0.146 0.3334,0.3065 0.4899,0.4358 0.4727,0.3901 2.8173,1.5111 1.6014,2.2883 -0.7425,0.4745 -13.4537,-0.1531 -14.4994,0.222z"/>
   <path class="fil0" d="M36.9934 4.8092c-0.1446,0.4363 -0.1355,8.3307 -0.0543,9.21 0.1462,1.5831 1.5411,2.8441 2.9778,2.842 1.8693,-0.0027 1.8423,0.402 1.7239,-1.5539 -1.1223,-0.2597 -2.1283,0.2215 -2.8143,-0.6743 -0.4226,-0.5519 -0.2691,-2.2106 -0.2691,-3.0616l-0.0002 -6.4126c-0.084,-0.5354 -0.631,-0.4573 -1.5638,-0.3496z"/>
   <path class="fil0" d="M34.3864 15.3691l1.0961 -0.0544 0.04 -5.7359c-0.0226,-0.4494 -0.2517,-0.3429 -1.1361,-0.343 -0.3098,-0.0001 -0.486,-0.0322 -0.5253,0.2702l-0.0007 4.5864c-0.0001,0.7728 -0.2351,1.2768 0.526,1.2767z"/>
   <path class="fil1" d="M6.5812 18.1993c0.3603,-0.3964 32.4402,-15.9905 32.6836,-15.9939 1.3268,4.545 4.4393,15.2061 4.6762,16.0175l-37.3598 -0.0236zm-6.5813 1.502c1.0809,0.3154 43.4651,0.4496 46.0002,0.0569 -0.9937,-3.1093 -4.6132,-15.8013 -5.7684,-19.7581 -0.1299,-0.0024 -38.3007,18.1734 -40.2318,19.7012z"/>
   <path class="fil2" d="M33.8256 6.7584c0,1.319 -0.3091,1.2264 1.6049,1.1579 0.1415,-0.4414 0.1151,-1.1453 0.0204,-1.592l-0.9865 -0.0327c-0.4909,0 -0.6388,-0.0284 -0.6388,0.4668z"/>
  </g>
 </g>
</svg>
