<?xml version="1.0" encoding="UTF-8"?>
<!DOCTYPE svg PUBLIC "-//W3C//DTD SVG 1.1//EN" "http://www.w3.org/Graphics/SVG/1.1/DTD/svg11.dtd">

<svg xmlns="http://www.w3.org/2000/svg" xml:space="preserve" width="36px" height="36px" version="1.1" style="shape-rendering:geometricPrecision; text-rendering:geometricPrecision; image-rendering:optimizeQuality; fill-rule:evenodd; clip-rule:evenodd"
viewBox="0 0 36 36"
 xmlns:xlink="http://www.w3.org/1999/xlink">
 <defs>
  <style type="text/css">
   <![CDATA[
    .fil0 {fill:#15E1E6}
   ]]>
  </style>
 </defs>
 <g id="Vrstva_x0020_1">
  <metadata id="CorelCorpID_0Corel-Layer"/>
  <path class="fil0" d="M9 14c6,-5 6,-2 2,-12 -1,-3 -1,-3 -5,-2 -6,1 -6,0 -5,7 1,9 7,18 14,23 5,3 10,5 16,5 4,0 4,-1 5,-6 1,-5 1,-4 -7,-7 -1,-1 -2,-1 -3,-1 -1,0 -3,4 -4,5 -4,-1 -12,-10 -12,-12z"/>
 </g>
</svg>
